<mxfile host="app.diagrams.net" modified="2021-03-24T09:05:30.097Z" agent="5.0 (Windows NT 10.0; Win64; x64) AppleWebKit/537.36 (KHTML, like Gecko) Chrome/88.0.4324.182 YaBrowser/21.2.4.165 Yowser/2.5 Safari/537.36" etag="_R9SkvuGc7fGEfMg3jSO" version="14.4.6" type="github">
  <diagram id="O6dOZKKfxx-vspAB8r2i" name="Page-1">
    <mxGraphModel dx="1629" dy="2129" grid="1" gridSize="10" guides="1" tooltips="1" connect="1" arrows="1" fold="1" page="1" pageScale="1" pageWidth="827" pageHeight="1169" math="0" shadow="0">
      <root>
        <mxCell id="0" />
        <mxCell id="1" parent="0" />
        <mxCell id="TU0fTfPvET5PNr98Xxx0-1" value="User&lt;br&gt;" style="shape=umlActor;verticalLabelPosition=bottom;verticalAlign=top;html=1;outlineConnect=0;" vertex="1" parent="1">
          <mxGeometry x="100" y="300" width="30" height="60" as="geometry" />
        </mxCell>
        <mxCell id="TU0fTfPvET5PNr98Xxx0-2" value="InfoApp" style="ellipse;whiteSpace=wrap;html=1;" vertex="1" parent="1">
          <mxGeometry x="280" y="300" width="120" height="80" as="geometry" />
        </mxCell>
        <mxCell id="TU0fTfPvET5PNr98Xxx0-3" value="" style="endArrow=none;html=1;entryX=0;entryY=0.5;entryDx=0;entryDy=0;exitX=0.5;exitY=0.5;exitDx=0;exitDy=0;exitPerimeter=0;" edge="1" parent="1" source="TU0fTfPvET5PNr98Xxx0-1" target="TU0fTfPvET5PNr98Xxx0-2">
          <mxGeometry width="50" height="50" relative="1" as="geometry">
            <mxPoint x="180" y="390" as="sourcePoint" />
            <mxPoint x="230" y="340" as="targetPoint" />
          </mxGeometry>
        </mxCell>
        <mxCell id="TU0fTfPvET5PNr98Xxx0-4" value="Include" style="endArrow=open;endSize=12;dashed=1;html=1;exitX=0.5;exitY=0;exitDx=0;exitDy=0;entryX=0.5;entryY=1;entryDx=0;entryDy=0;" edge="1" parent="1" source="TU0fTfPvET5PNr98Xxx0-2" target="TU0fTfPvET5PNr98Xxx0-6">
          <mxGeometry width="160" relative="1" as="geometry">
            <mxPoint x="330" y="250" as="sourcePoint" />
            <mxPoint x="240" y="210" as="targetPoint" />
          </mxGeometry>
        </mxCell>
        <mxCell id="TU0fTfPvET5PNr98Xxx0-6" value="Авторизация&lt;br&gt;" style="ellipse;whiteSpace=wrap;html=1;" vertex="1" parent="1">
          <mxGeometry x="100" y="120" width="120" height="80" as="geometry" />
        </mxCell>
        <mxCell id="TU0fTfPvET5PNr98Xxx0-7" value="Регистрация" style="ellipse;whiteSpace=wrap;html=1;" vertex="1" parent="1">
          <mxGeometry x="220" y="-10" width="120" height="80" as="geometry" />
        </mxCell>
        <mxCell id="TU0fTfPvET5PNr98Xxx0-8" value="Include" style="endArrow=open;endSize=12;dashed=1;html=1;exitX=0.5;exitY=0;exitDx=0;exitDy=0;entryX=0.5;entryY=1;entryDx=0;entryDy=0;" edge="1" parent="1" source="TU0fTfPvET5PNr98Xxx0-2" target="TU0fTfPvET5PNr98Xxx0-7">
          <mxGeometry width="160" relative="1" as="geometry">
            <mxPoint x="400" y="280" as="sourcePoint" />
            <mxPoint x="560" y="280" as="targetPoint" />
          </mxGeometry>
        </mxCell>
        <mxCell id="TU0fTfPvET5PNr98Xxx0-9" value="Использование интерактивного глобуса" style="ellipse;whiteSpace=wrap;html=1;" vertex="1" parent="1">
          <mxGeometry x="390" y="110" width="120" height="80" as="geometry" />
        </mxCell>
        <mxCell id="TU0fTfPvET5PNr98Xxx0-10" value="Include" style="endArrow=open;endSize=12;dashed=1;html=1;exitX=0.5;exitY=0;exitDx=0;exitDy=0;entryX=0;entryY=1;entryDx=0;entryDy=0;" edge="1" parent="1" source="TU0fTfPvET5PNr98Xxx0-2" target="TU0fTfPvET5PNr98Xxx0-9">
          <mxGeometry width="160" relative="1" as="geometry">
            <mxPoint x="350" y="310" as="sourcePoint" />
            <mxPoint x="390" y="220" as="targetPoint" />
          </mxGeometry>
        </mxCell>
        <mxCell id="TU0fTfPvET5PNr98Xxx0-13" value="Взаимодействие" style="ellipse;whiteSpace=wrap;html=1;" vertex="1" parent="1">
          <mxGeometry x="510" y="-20" width="120" height="80" as="geometry" />
        </mxCell>
        <mxCell id="TU0fTfPvET5PNr98Xxx0-14" value="Include" style="endArrow=open;endSize=12;dashed=1;html=1;entryX=0;entryY=1;entryDx=0;entryDy=0;" edge="1" parent="1" source="TU0fTfPvET5PNr98Xxx0-9" target="TU0fTfPvET5PNr98Xxx0-13">
          <mxGeometry width="160" relative="1" as="geometry">
            <mxPoint x="520" y="140" as="sourcePoint" />
            <mxPoint x="530" y="50" as="targetPoint" />
          </mxGeometry>
        </mxCell>
        <mxCell id="TU0fTfPvET5PNr98Xxx0-15" value="Extends" style="endArrow=open;endSize=16;endFill=0;html=1;entryX=0.5;entryY=0;entryDx=0;entryDy=0;exitX=0.5;exitY=1;exitDx=0;exitDy=0;dashed=1;" edge="1" parent="1" source="TU0fTfPvET5PNr98Xxx0-16" target="TU0fTfPvET5PNr98Xxx0-13">
          <mxGeometry width="160" relative="1" as="geometry">
            <mxPoint x="520" y="-120" as="sourcePoint" />
            <mxPoint x="660" y="-160" as="targetPoint" />
          </mxGeometry>
        </mxCell>
        <mxCell id="TU0fTfPvET5PNr98Xxx0-16" value="Вращение с использовнием ЛКМ" style="ellipse;whiteSpace=wrap;html=1;" vertex="1" parent="1">
          <mxGeometry x="450" y="-200" width="120" height="80" as="geometry" />
        </mxCell>
        <mxCell id="TU0fTfPvET5PNr98Xxx0-17" value="Нажатие на генерируемые объекты" style="ellipse;whiteSpace=wrap;html=1;" vertex="1" parent="1">
          <mxGeometry x="590" y="-170" width="120" height="80" as="geometry" />
        </mxCell>
        <mxCell id="TU0fTfPvET5PNr98Xxx0-18" value="Extends" style="endArrow=open;endSize=16;endFill=0;html=1;entryX=0.5;entryY=0;entryDx=0;entryDy=0;exitX=0.5;exitY=1;exitDx=0;exitDy=0;dashed=1;" edge="1" parent="1" source="TU0fTfPvET5PNr98Xxx0-17" target="TU0fTfPvET5PNr98Xxx0-13">
          <mxGeometry width="160" relative="1" as="geometry">
            <mxPoint x="520" y="-110" as="sourcePoint" />
            <mxPoint x="580" y="-10" as="targetPoint" />
          </mxGeometry>
        </mxCell>
        <mxCell id="TU0fTfPvET5PNr98Xxx0-20" value="Просмотр соответствующего поста" style="ellipse;whiteSpace=wrap;html=1;" vertex="1" parent="1">
          <mxGeometry x="700" y="10" width="120" height="80" as="geometry" />
        </mxCell>
        <mxCell id="TU0fTfPvET5PNr98Xxx0-21" value="Подтверждение по почте" style="ellipse;whiteSpace=wrap;html=1;" vertex="1" parent="1">
          <mxGeometry x="150" y="-200" width="120" height="80" as="geometry" />
        </mxCell>
        <mxCell id="TU0fTfPvET5PNr98Xxx0-22" value="Extends" style="endArrow=open;endSize=16;endFill=0;html=1;entryX=0.5;entryY=0;entryDx=0;entryDy=0;exitX=0.796;exitY=0.911;exitDx=0;exitDy=0;exitPerimeter=0;dashed=1;" edge="1" parent="1" source="TU0fTfPvET5PNr98Xxx0-21" target="TU0fTfPvET5PNr98Xxx0-7">
          <mxGeometry width="160" relative="1" as="geometry">
            <mxPoint x="142" y="-92" as="sourcePoint" />
            <mxPoint x="580" y="-10" as="targetPoint" />
          </mxGeometry>
        </mxCell>
        <mxCell id="TU0fTfPvET5PNr98Xxx0-26" value="Просмотр постов" style="ellipse;whiteSpace=wrap;html=1;" vertex="1" parent="1">
          <mxGeometry x="530" y="150" width="120" height="80" as="geometry" />
        </mxCell>
        <mxCell id="TU0fTfPvET5PNr98Xxx0-27" value="Include" style="endArrow=open;endSize=12;dashed=1;html=1;exitX=1;exitY=0;exitDx=0;exitDy=0;entryX=0;entryY=0.5;entryDx=0;entryDy=0;" edge="1" parent="1" source="TU0fTfPvET5PNr98Xxx0-2" target="TU0fTfPvET5PNr98Xxx0-26">
          <mxGeometry width="160" relative="1" as="geometry">
            <mxPoint x="350" y="310" as="sourcePoint" />
            <mxPoint x="417.57359312880726" y="188.2842712474619" as="targetPoint" />
          </mxGeometry>
        </mxCell>
        <mxCell id="TU0fTfPvET5PNr98Xxx0-28" value="Include" style="endArrow=open;endSize=12;dashed=1;html=1;exitX=1;exitY=0;exitDx=0;exitDy=0;entryX=0;entryY=1;entryDx=0;entryDy=0;" edge="1" parent="1" source="TU0fTfPvET5PNr98Xxx0-26" target="TU0fTfPvET5PNr98Xxx0-20">
          <mxGeometry width="160" relative="1" as="geometry">
            <mxPoint x="392.42640687119274" y="321.71572875253787" as="sourcePoint" />
            <mxPoint x="540" y="200" as="targetPoint" />
          </mxGeometry>
        </mxCell>
        <mxCell id="TU0fTfPvET5PNr98Xxx0-29" value="Include" style="endArrow=open;endSize=12;dashed=1;html=1;exitX=1;exitY=0.5;exitDx=0;exitDy=0;" edge="1" parent="1" source="TU0fTfPvET5PNr98Xxx0-26">
          <mxGeometry width="160" relative="1" as="geometry">
            <mxPoint x="642.4264068711927" y="171.71572875253787" as="sourcePoint" />
            <mxPoint x="720" y="190" as="targetPoint" />
          </mxGeometry>
        </mxCell>
        <mxCell id="TU0fTfPvET5PNr98Xxx0-30" value="Добавление комментариев" style="ellipse;whiteSpace=wrap;html=1;" vertex="1" parent="1">
          <mxGeometry x="720" y="150" width="120" height="80" as="geometry" />
        </mxCell>
        <mxCell id="TU0fTfPvET5PNr98Xxx0-31" value="Подключение к БД" style="ellipse;whiteSpace=wrap;html=1;" vertex="1" parent="1">
          <mxGeometry x="240" y="420" width="90" height="50" as="geometry" />
        </mxCell>
        <mxCell id="TU0fTfPvET5PNr98Xxx0-32" value="Extends" style="endArrow=open;endSize=16;endFill=0;html=1;exitX=0.5;exitY=0;exitDx=0;exitDy=0;dashed=1;entryX=0.5;entryY=1;entryDx=0;entryDy=0;" edge="1" parent="1" source="TU0fTfPvET5PNr98Xxx0-31" target="TU0fTfPvET5PNr98Xxx0-2">
          <mxGeometry width="160" relative="1" as="geometry">
            <mxPoint x="255.51999999999998" y="-117.11999999999989" as="sourcePoint" />
            <mxPoint x="360" y="400" as="targetPoint" />
          </mxGeometry>
        </mxCell>
        <mxCell id="TU0fTfPvET5PNr98Xxx0-33" value="Просмотр шапки сайта" style="ellipse;whiteSpace=wrap;html=1;" vertex="1" parent="1">
          <mxGeometry x="369" y="430" width="90" height="50" as="geometry" />
        </mxCell>
        <mxCell id="TU0fTfPvET5PNr98Xxx0-34" value="Extends" style="endArrow=open;endSize=16;endFill=0;html=1;exitX=0.5;exitY=0;exitDx=0;exitDy=0;dashed=1;entryX=0.5;entryY=1;entryDx=0;entryDy=0;" edge="1" parent="1" source="TU0fTfPvET5PNr98Xxx0-33" target="TU0fTfPvET5PNr98Xxx0-2">
          <mxGeometry width="160" relative="1" as="geometry">
            <mxPoint x="295" y="430" as="sourcePoint" />
            <mxPoint x="350" y="390" as="targetPoint" />
          </mxGeometry>
        </mxCell>
        <mxCell id="TU0fTfPvET5PNr98Xxx0-36" value="Admin" style="shape=umlActor;verticalLabelPosition=bottom;verticalAlign=top;html=1;outlineConnect=0;" vertex="1" parent="1">
          <mxGeometry x="790" y="250" width="30" height="60" as="geometry" />
        </mxCell>
        <mxCell id="TU0fTfPvET5PNr98Xxx0-37" value="InfoApp" style="ellipse;whiteSpace=wrap;html=1;" vertex="1" parent="1">
          <mxGeometry x="970" y="250" width="120" height="80" as="geometry" />
        </mxCell>
        <mxCell id="TU0fTfPvET5PNr98Xxx0-38" value="" style="endArrow=none;html=1;entryX=0;entryY=0.5;entryDx=0;entryDy=0;exitX=0.5;exitY=0.5;exitDx=0;exitDy=0;exitPerimeter=0;" edge="1" parent="1" source="TU0fTfPvET5PNr98Xxx0-36" target="TU0fTfPvET5PNr98Xxx0-37">
          <mxGeometry width="50" height="50" relative="1" as="geometry">
            <mxPoint x="870" y="340" as="sourcePoint" />
            <mxPoint x="920" y="290" as="targetPoint" />
          </mxGeometry>
        </mxCell>
        <mxCell id="TU0fTfPvET5PNr98Xxx0-39" value="Include" style="endArrow=open;endSize=12;dashed=1;html=1;exitX=0.5;exitY=0;exitDx=0;exitDy=0;entryX=0.5;entryY=1;entryDx=0;entryDy=0;" edge="1" parent="1" source="TU0fTfPvET5PNr98Xxx0-37" target="TU0fTfPvET5PNr98Xxx0-40">
          <mxGeometry width="160" relative="1" as="geometry">
            <mxPoint x="1020" y="200" as="sourcePoint" />
            <mxPoint x="930" y="160" as="targetPoint" />
          </mxGeometry>
        </mxCell>
        <mxCell id="TU0fTfPvET5PNr98Xxx0-40" value="Авторизация&lt;br&gt;" style="ellipse;whiteSpace=wrap;html=1;" vertex="1" parent="1">
          <mxGeometry x="790" y="70" width="120" height="80" as="geometry" />
        </mxCell>
        <mxCell id="TU0fTfPvET5PNr98Xxx0-41" value="Регистрация" style="ellipse;whiteSpace=wrap;html=1;" vertex="1" parent="1">
          <mxGeometry x="910" y="-60" width="120" height="80" as="geometry" />
        </mxCell>
        <mxCell id="TU0fTfPvET5PNr98Xxx0-42" value="Include" style="endArrow=open;endSize=12;dashed=1;html=1;exitX=0.5;exitY=0;exitDx=0;exitDy=0;entryX=0.5;entryY=1;entryDx=0;entryDy=0;" edge="1" parent="1" source="TU0fTfPvET5PNr98Xxx0-37" target="TU0fTfPvET5PNr98Xxx0-41">
          <mxGeometry width="160" relative="1" as="geometry">
            <mxPoint x="1090" y="230" as="sourcePoint" />
            <mxPoint x="1250" y="230" as="targetPoint" />
          </mxGeometry>
        </mxCell>
        <mxCell id="TU0fTfPvET5PNr98Xxx0-43" value="Использование интерактивный глобус" style="ellipse;whiteSpace=wrap;html=1;" vertex="1" parent="1">
          <mxGeometry x="1080" y="60" width="120" height="80" as="geometry" />
        </mxCell>
        <mxCell id="TU0fTfPvET5PNr98Xxx0-44" value="Include" style="endArrow=open;endSize=12;dashed=1;html=1;exitX=0.5;exitY=0;exitDx=0;exitDy=0;entryX=0;entryY=1;entryDx=0;entryDy=0;" edge="1" parent="1" source="TU0fTfPvET5PNr98Xxx0-37" target="TU0fTfPvET5PNr98Xxx0-43">
          <mxGeometry width="160" relative="1" as="geometry">
            <mxPoint x="1040" y="260" as="sourcePoint" />
            <mxPoint x="1080" y="170" as="targetPoint" />
          </mxGeometry>
        </mxCell>
        <mxCell id="TU0fTfPvET5PNr98Xxx0-47" value="Взаимодействие" style="ellipse;whiteSpace=wrap;html=1;" vertex="1" parent="1">
          <mxGeometry x="1200" y="-70" width="120" height="80" as="geometry" />
        </mxCell>
        <mxCell id="TU0fTfPvET5PNr98Xxx0-48" value="Include" style="endArrow=open;endSize=12;dashed=1;html=1;entryX=0;entryY=1;entryDx=0;entryDy=0;" edge="1" parent="1" source="TU0fTfPvET5PNr98Xxx0-43" target="TU0fTfPvET5PNr98Xxx0-47">
          <mxGeometry width="160" relative="1" as="geometry">
            <mxPoint x="1210" y="90" as="sourcePoint" />
            <mxPoint x="1220" as="targetPoint" />
          </mxGeometry>
        </mxCell>
        <mxCell id="TU0fTfPvET5PNr98Xxx0-49" value="Extends" style="endArrow=open;endSize=16;endFill=0;html=1;entryX=0.5;entryY=0;entryDx=0;entryDy=0;exitX=0.5;exitY=1;exitDx=0;exitDy=0;dashed=1;" edge="1" parent="1" source="TU0fTfPvET5PNr98Xxx0-50" target="TU0fTfPvET5PNr98Xxx0-47">
          <mxGeometry width="160" relative="1" as="geometry">
            <mxPoint x="1210" y="-170" as="sourcePoint" />
            <mxPoint x="1350" y="-210" as="targetPoint" />
          </mxGeometry>
        </mxCell>
        <mxCell id="TU0fTfPvET5PNr98Xxx0-50" value="Вращение с использовнием ЛКМ" style="ellipse;whiteSpace=wrap;html=1;" vertex="1" parent="1">
          <mxGeometry x="1140" y="-250" width="120" height="80" as="geometry" />
        </mxCell>
        <mxCell id="TU0fTfPvET5PNr98Xxx0-51" value="Нажатие на генерируемые объекты" style="ellipse;whiteSpace=wrap;html=1;" vertex="1" parent="1">
          <mxGeometry x="1280" y="-220" width="120" height="80" as="geometry" />
        </mxCell>
        <mxCell id="TU0fTfPvET5PNr98Xxx0-52" value="Extends" style="endArrow=open;endSize=16;endFill=0;html=1;entryX=0.5;entryY=0;entryDx=0;entryDy=0;exitX=0.5;exitY=1;exitDx=0;exitDy=0;dashed=1;" edge="1" parent="1" source="TU0fTfPvET5PNr98Xxx0-51" target="TU0fTfPvET5PNr98Xxx0-47">
          <mxGeometry width="160" relative="1" as="geometry">
            <mxPoint x="1210" y="-160" as="sourcePoint" />
            <mxPoint x="1270" y="-60" as="targetPoint" />
          </mxGeometry>
        </mxCell>
        <mxCell id="TU0fTfPvET5PNr98Xxx0-54" value="Просмотр соответствующего поста" style="ellipse;whiteSpace=wrap;html=1;" vertex="1" parent="1">
          <mxGeometry x="1390" y="-40" width="120" height="80" as="geometry" />
        </mxCell>
        <mxCell id="TU0fTfPvET5PNr98Xxx0-55" value="Подтверждение по почте" style="ellipse;whiteSpace=wrap;html=1;" vertex="1" parent="1">
          <mxGeometry x="840" y="-250" width="120" height="80" as="geometry" />
        </mxCell>
        <mxCell id="TU0fTfPvET5PNr98Xxx0-56" value="Extends" style="endArrow=open;endSize=16;endFill=0;html=1;entryX=0.5;entryY=0;entryDx=0;entryDy=0;exitX=0.796;exitY=0.911;exitDx=0;exitDy=0;exitPerimeter=0;dashed=1;" edge="1" parent="1" source="TU0fTfPvET5PNr98Xxx0-55" target="TU0fTfPvET5PNr98Xxx0-41">
          <mxGeometry width="160" relative="1" as="geometry">
            <mxPoint x="832" y="-142" as="sourcePoint" />
            <mxPoint x="1270" y="-60" as="targetPoint" />
          </mxGeometry>
        </mxCell>
        <mxCell id="TU0fTfPvET5PNr98Xxx0-57" value="Просмотр постов" style="ellipse;whiteSpace=wrap;html=1;" vertex="1" parent="1">
          <mxGeometry x="1220" y="100" width="120" height="80" as="geometry" />
        </mxCell>
        <mxCell id="TU0fTfPvET5PNr98Xxx0-58" value="Include" style="endArrow=open;endSize=12;dashed=1;html=1;exitX=1;exitY=0;exitDx=0;exitDy=0;entryX=0;entryY=0.5;entryDx=0;entryDy=0;" edge="1" parent="1" source="TU0fTfPvET5PNr98Xxx0-37" target="TU0fTfPvET5PNr98Xxx0-57">
          <mxGeometry width="160" relative="1" as="geometry">
            <mxPoint x="1040" y="260" as="sourcePoint" />
            <mxPoint x="1107.5735931288073" y="138.2842712474619" as="targetPoint" />
          </mxGeometry>
        </mxCell>
        <mxCell id="TU0fTfPvET5PNr98Xxx0-59" value="Include" style="endArrow=open;endSize=12;dashed=1;html=1;exitX=1;exitY=0;exitDx=0;exitDy=0;entryX=0;entryY=1;entryDx=0;entryDy=0;" edge="1" parent="1" source="TU0fTfPvET5PNr98Xxx0-57" target="TU0fTfPvET5PNr98Xxx0-54">
          <mxGeometry width="160" relative="1" as="geometry">
            <mxPoint x="1082.4264068711927" y="271.71572875253787" as="sourcePoint" />
            <mxPoint x="1230" y="150" as="targetPoint" />
          </mxGeometry>
        </mxCell>
        <mxCell id="TU0fTfPvET5PNr98Xxx0-61" value="Подключение к БД" style="ellipse;whiteSpace=wrap;html=1;" vertex="1" parent="1">
          <mxGeometry x="930" y="370" width="90" height="50" as="geometry" />
        </mxCell>
        <mxCell id="TU0fTfPvET5PNr98Xxx0-62" value="Extends" style="endArrow=open;endSize=16;endFill=0;html=1;exitX=0.5;exitY=0;exitDx=0;exitDy=0;dashed=1;entryX=0.5;entryY=1;entryDx=0;entryDy=0;" edge="1" parent="1" source="TU0fTfPvET5PNr98Xxx0-61" target="TU0fTfPvET5PNr98Xxx0-37">
          <mxGeometry width="160" relative="1" as="geometry">
            <mxPoint x="945.52" y="-167.1199999999999" as="sourcePoint" />
            <mxPoint x="1050" y="350" as="targetPoint" />
          </mxGeometry>
        </mxCell>
        <mxCell id="TU0fTfPvET5PNr98Xxx0-63" value="Просмотр шапки сайта" style="ellipse;whiteSpace=wrap;html=1;" vertex="1" parent="1">
          <mxGeometry x="1059" y="380" width="90" height="50" as="geometry" />
        </mxCell>
        <mxCell id="TU0fTfPvET5PNr98Xxx0-64" value="Extends" style="endArrow=open;endSize=16;endFill=0;html=1;exitX=0.5;exitY=0;exitDx=0;exitDy=0;dashed=1;entryX=0.5;entryY=1;entryDx=0;entryDy=0;" edge="1" parent="1" source="TU0fTfPvET5PNr98Xxx0-63" target="TU0fTfPvET5PNr98Xxx0-37">
          <mxGeometry width="160" relative="1" as="geometry">
            <mxPoint x="985" y="380" as="sourcePoint" />
            <mxPoint x="1040" y="340" as="targetPoint" />
          </mxGeometry>
        </mxCell>
        <mxCell id="TU0fTfPvET5PNr98Xxx0-65" value="Extends" style="endArrow=open;endSize=16;endFill=0;html=1;exitX=0.5;exitY=0;exitDx=0;exitDy=0;dashed=1;entryX=0.5;entryY=1;entryDx=0;entryDy=0;" edge="1" parent="1" source="TU0fTfPvET5PNr98Xxx0-54" target="TU0fTfPvET5PNr98Xxx0-66">
          <mxGeometry width="160" relative="1" as="geometry">
            <mxPoint x="1417.573593128807" y="-18.28427124746213" as="sourcePoint" />
            <mxPoint x="1440" y="-160" as="targetPoint" />
          </mxGeometry>
        </mxCell>
        <mxCell id="TU0fTfPvET5PNr98Xxx0-66" value="Редактирование поста" style="ellipse;whiteSpace=wrap;html=1;" vertex="1" parent="1">
          <mxGeometry x="1420" y="-250" width="120" height="80" as="geometry" />
        </mxCell>
        <mxCell id="TU0fTfPvET5PNr98Xxx0-67" value="Extends" style="endArrow=open;endSize=16;endFill=0;html=1;dashed=1;entryX=1;entryY=0.5;entryDx=0;entryDy=0;exitX=0;exitY=0.5;exitDx=0;exitDy=0;" edge="1" parent="1" source="TU0fTfPvET5PNr98Xxx0-70" target="TU0fTfPvET5PNr98Xxx0-57">
          <mxGeometry width="160" relative="1" as="geometry">
            <mxPoint x="1440" y="180" as="sourcePoint" />
            <mxPoint x="1460" y="112" as="targetPoint" />
          </mxGeometry>
        </mxCell>
        <mxCell id="TU0fTfPvET5PNr98Xxx0-68" value="Extends" style="endArrow=open;endSize=16;endFill=0;html=1;exitX=1;exitY=0;exitDx=0;exitDy=0;dashed=1;" edge="1" parent="1" source="TU0fTfPvET5PNr98Xxx0-54">
          <mxGeometry width="160" relative="1" as="geometry">
            <mxPoint x="1460" y="-30" as="sourcePoint" />
            <mxPoint x="1570" y="-150" as="targetPoint" />
          </mxGeometry>
        </mxCell>
        <mxCell id="TU0fTfPvET5PNr98Xxx0-69" value="Удаление поста" style="ellipse;whiteSpace=wrap;html=1;" vertex="1" parent="1">
          <mxGeometry x="1540" y="-225" width="120" height="80" as="geometry" />
        </mxCell>
        <mxCell id="TU0fTfPvET5PNr98Xxx0-70" value="Добавление поста" style="ellipse;whiteSpace=wrap;html=1;" vertex="1" parent="1">
          <mxGeometry x="1460" y="70" width="120" height="80" as="geometry" />
        </mxCell>
        <mxCell id="TU0fTfPvET5PNr98Xxx0-71" value="Include" style="endArrow=open;endSize=12;dashed=1;html=1;exitX=0.815;exitY=0.958;exitDx=0;exitDy=0;entryX=0.33;entryY=-0.005;entryDx=0;entryDy=0;exitPerimeter=0;entryPerimeter=0;" edge="1" parent="1" source="TU0fTfPvET5PNr98Xxx0-51" target="TU0fTfPvET5PNr98Xxx0-54">
          <mxGeometry width="160" relative="1" as="geometry">
            <mxPoint x="1332.426406871193" y="121.71572875253742" as="sourcePoint" />
            <mxPoint x="1417.573593128807" y="38.284271247461675" as="targetPoint" />
          </mxGeometry>
        </mxCell>
        <mxCell id="TU0fTfPvET5PNr98Xxx0-72" value="Include" style="endArrow=open;endSize=12;dashed=1;html=1;exitX=0.802;exitY=0.921;exitDx=0;exitDy=0;entryX=0.349;entryY=0.004;entryDx=0;entryDy=0;exitPerimeter=0;entryPerimeter=0;" edge="1" parent="1" source="TU0fTfPvET5PNr98Xxx0-17" target="TU0fTfPvET5PNr98Xxx0-20">
          <mxGeometry width="160" relative="1" as="geometry">
            <mxPoint x="727.426406871193" y="-26.564271247462557" as="sourcePoint" />
            <mxPoint x="812.573593128807" y="-109.9957287525383" as="targetPoint" />
          </mxGeometry>
        </mxCell>
      </root>
    </mxGraphModel>
  </diagram>
</mxfile>
